<svg width="240" height="51" viewBox="0 0 240 51" fill="none" xmlns="http://www.w3.org/2000/svg">
<path d="M35.3604 0V50.4H50.1604V11.2L35.3604 0Z" fill="white"/>
<path d="M29.4404 4.44016V50.4002H32.4804V2.16016L29.4404 4.44016Z" fill="white"/>
<path d="M23.5596 8.91961V50.3996H26.5996V6.59961L23.5596 8.91961Z" fill="white"/>
<path d="M17.6797 13.3601V50.4001H20.7197V11.0801L17.6797 13.3601Z" fill="white"/>
<path d="M53 50.4005H67.84V33.8005L53 22.5605V50.4005Z" fill="white"/>
<path d="M11.7998 26.9997V50.3997H14.7998V24.6797L11.7998 26.9997Z" fill="white"/>
<path d="M5.87988 31.4402V50.4002H8.91988V29.1602L5.87988 31.4402Z" fill="white"/>
<path d="M0 35.9196V50.3996H3.04V33.5996L0 35.9196Z" fill="white"/>
<path d="M106.08 28.0802C101.64 28.0802 98.9199 25.6002 98.9199 20.7202V11.2002H102.56V20.6002C102.56 23.3202 103.92 24.6802 106.12 24.6802C108.36 24.6802 109.68 23.3202 109.68 20.6802V11.1602H113.32V20.5202C113.36 25.6002 110.52 28.0802 106.08 28.0802Z" fill="white"/>
<path d="M124.32 28.0399C121.8 28.0399 119.28 27.1599 117.28 25.3999L119.44 22.7999C120.92 24.0399 122.48 24.7999 124.4 24.7999C125.88 24.7999 126.8 24.1999 126.8 23.2399V23.1999C126.8 22.2799 126.24 21.7999 123.44 21.0799C120.08 20.2399 117.96 19.2399 117.96 15.9599V15.9199C117.96 12.9199 120.36 10.9199 123.76 10.9199C126.16 10.9199 128.24 11.6799 129.92 13.0399L128.04 15.7999C126.56 14.7999 125.12 14.1599 123.72 14.1599C122.32 14.1599 121.6 14.7999 121.6 15.5999C121.6 16.6799 122.32 17.1199 125.16 17.8399C128.52 18.7199 130.44 19.9199 130.44 22.7999V22.8399C130.4 26.1999 127.92 28.0399 124.32 28.0399Z" fill="white"/>
<path d="M145.76 27.7992V21.1192H139V27.7992H135.36V11.1992H139V17.7592H145.76V11.1992H149.4V27.7992H145.76Z" fill="white"/>
<path d="M209.04 27.7992L201.24 17.3992V27.7992H197.64V11.1992H201L208.76 21.7192V11.1992H212.36V27.7992H209.04Z" fill="white"/>
<path d="M137.68 50.4008L132.56 43.3208L130.64 45.3208V50.4008H126.96V33.8008H130.64V41.0408L137.36 33.8008H141.76L135 40.8408L142.08 50.4008H137.68Z" fill="white"/>
<path d="M146.16 50.4008V33.8008H158.56V37.0408H149.8V40.4008H157.48V43.6408H149.8V47.1608H158.68V50.4008H146.16Z" fill="white"/>
<rect x="181.44" y="33.8008" width="3.64" height="16.6" fill="white"/>
<path d="M190.44 50.3598V33.7598H202.84V37.0398H194.08V40.3998H201.8V43.6398H194.08V47.1198H202.96V50.3598H190.44Z" fill="white"/>
<path d="M208.44 50.4008V33.8008H212.08V47.0808H220.36V50.4008H208.44Z" fill="white"/>
<path fill-rule="evenodd" clip-rule="evenodd" d="M224.72 50.4008H231.2C236.4 50.4008 240 46.7608 240 42.0808V42.0408C240 37.3608 236.4 33.8008 231.2 33.8008H224.72V50.4008ZM231.2 37.0808C234.2 37.0808 236.2 39.1608 236.2 42.0808V42.1208C236.2 45.0808 234.2 47.0808 231.2 47.0808H228.36V37.0808H231.2Z" fill="white"/>
<path d="M88.0404 24.6792C85.0004 24.7192 82.9604 22.3992 82.9204 19.5592V19.5192C82.8804 16.6792 84.8804 14.3192 87.8004 14.2792C89.4404 14.2392 90.9204 14.9592 91.8804 16.1192L94.2004 13.3592C92.6004 11.7992 90.3604 10.8792 87.8004 10.9192C82.6804 10.9992 79.0404 14.9192 79.1204 19.6392V19.6792C79.2004 24.3992 82.9604 28.1592 88.0404 28.0392C90.7204 27.9992 93.0004 26.7592 94.5604 24.9992L92.1204 22.5992C91.2004 23.8392 89.7604 24.6392 88.0404 24.6792Z" fill="white"/>
<path d="M167.96 11.1992H171.84V27.7992H168.36V16.9192L163.68 24.0392H163.56L158.84 16.9192V27.7992H155.4V11.1992H159.28L163.6 18.1592L167.96 11.1992Z" fill="white"/>
<path fill-rule="evenodd" clip-rule="evenodd" d="M175.96 27.7602L183 11.2002V11.1602H186.48L193.52 27.7602H189.72L188.2 24.0402H181.2L179.68 27.7602H175.96ZM184.68 15.4802L182.48 20.8402H186.88L184.68 15.4802Z" fill="white"/>
<path fill-rule="evenodd" clip-rule="evenodd" d="M105.32 50.4008L112.36 33.8008H115.84L122.88 50.4008H119.08L117.56 46.6808H110.56L109.04 50.4008H105.32ZM114.04 38.0808L111.84 43.4408H116.24L114.04 38.0808Z" fill="white"/>
<path d="M167.48 37.1208V40.6408H175.28V43.9608H167.48V50.4008H163.8V33.8008H176.44V37.1208H167.48Z" fill="white"/>
<path d="M101.4 33.8008L97.5596 45.3608L93.6796 33.8008H90.1596L86.3196 45.3608L82.4796 33.8008H78.5996L84.5596 50.4008H88.1996L91.9196 39.0008L95.6796 50.4008H99.3196L105.28 33.8008H101.4Z" fill="white"/>
<path fill-rule="evenodd" clip-rule="evenodd" d="M235.64 23.6799L237.56 21.5599L235.24 19.0799L233.56 21.0799L231.48 18.6399C232.84 17.8399 233.72 16.3599 233.64 14.8399C233.56 12.5999 231.72 10.9199 229.36 10.9199C228.24 10.9199 227.2 11.3599 226.44 12.1599C225.68 12.9599 225.28 13.9999 225.32 15.1199C225.36 16.3599 226.2 17.4399 226.8 18.1599C224.84 18.9599 223.4 21.0399 223.48 23.0399C223.56 25.8799 226.04 28.1999 228.96 28.1999C230.6 28.1999 232.4 27.3199 233.52 26.0799L235 27.8799H239.28L235.64 23.6799ZM231.56 23.5199C230.8 24.5199 229.84 25.0799 229 25.0799C227.8 25.0799 226.76 24.0799 226.72 22.8799C226.68 22.1599 227.24 21.0399 228.92 20.2799L231.56 23.5199ZM228.48 15.0799C228.56 15.6799 229.08 16.2399 229.52 16.6399C230.04 16.3599 230.8 15.7599 230.84 14.9999C230.84 14.3199 230.4 13.7199 229.56 13.7599C228.76 13.7999 228.4 14.4799 228.48 15.0799Z" fill="white"/>
</svg>
