<svg width="794" height="200" viewBox="0 0 794 200" fill="none" xmlns="http://www.w3.org/2000/svg">
<path fill-rule="evenodd" clip-rule="evenodd" d="M29.186 0.00219727V47.0357H28.7045L10.3718 0.00219727H0V75.9794H10.3718V24.7238H10.857L30.9977 75.9794H39.5572V0.00219727H29.186Z" fill="white"/>
<path fill-rule="evenodd" clip-rule="evenodd" d="M94.668 0.00109863V75.9783H126.264V66.6945H105.521V41.4871H120.958V32.2034H105.521V9.28489H125.782V0.00109863H94.668Z" fill="white"/>
<path fill-rule="evenodd" clip-rule="evenodd" d="M226.115 0.00219727L218.639 50.5292H218.153L210.92 0.00219727H202.238L195.001 50.5292H194.52L187.043 0.00219727H176.429L188.729 75.9794H198.983L206.096 26.6527H206.581L213.693 75.9794H224.064L236.244 0.00219727H226.115Z" fill="white"/>
<path fill-rule="evenodd" clip-rule="evenodd" d="M325 0L314.147 51.255H313.666L302.449 0H287.978V75.9772H297.868V22.9148H298.349L309.929 75.9772H317.042L328.38 22.9148H328.861V75.9772H339.354V0H325Z" fill="white"/>
<path fill-rule="evenodd" clip-rule="evenodd" d="M406.639 0.00332642L390.963 75.9805H401.334L405.192 55.5969H420.63L424.487 75.9805H435.704L420.028 0.00332642H406.639ZM412.79 16.5255H413.275L418.94 46.6731H407.004L412.79 16.5255Z" fill="white"/>
<path fill-rule="evenodd" clip-rule="evenodd" d="M502.151 36.0607H498.414V9.16732H502.151C511.434 9.16732 514.212 13.9917 514.212 22.5511C514.212 31.8392 511.434 36.0607 502.151 36.0607ZM512.643 40.763C520.362 39.437 525.425 33.6467 525.425 21.8317C525.425 8.56075 519.274 0.000671387 503.477 0.000671387H487.437V75.9779H498.414V45.1059H502.631C510.472 45.1059 511.798 49.566 512.28 58.4897C512.765 68.2587 513.125 72.2379 514.329 75.9779H525.668C523.617 71.7564 523.617 67.2964 523.132 57.8874C522.651 48.7251 520.843 42.4496 512.643 40.763Z" fill="white"/>
<path fill-rule="evenodd" clip-rule="evenodd" d="M617.799 0.000976562H606.465L590.425 37.9893V0.000976562H579.208V75.9782H590.425V54.9966L595.006 44.1396L606.947 75.9782H618.644L603.085 33.6507L617.799 0.000976562Z" fill="white"/>
<path fill-rule="evenodd" clip-rule="evenodd" d="M681.232 41.4871H696.669V32.2033H681.232V9.28483H701.493V0.0010376H670.379V75.9782H701.975V66.6944H681.232V41.4871Z" fill="white"/>
<path fill-rule="evenodd" clip-rule="evenodd" d="M753.464 0.000976562V9.28477H767.576V75.9782H778.672V9.28477H793.143V0.000976562H753.464Z" fill="white"/>
<path fill-rule="evenodd" clip-rule="evenodd" d="M206.881 157.67L195.906 123.058H184.447L200.973 171.778V199.035H211.826V171.778L228.226 123.058H217.252L206.881 157.67Z" fill="white"/>
<path fill-rule="evenodd" clip-rule="evenodd" d="M307.336 169.729L313.122 139.581H313.607L319.276 169.729H307.336ZM306.971 123.059L291.295 199.036H301.667L305.524 178.653H320.962L324.819 199.036H336.036L320.359 123.059H306.971Z" fill="white"/>
<path fill-rule="evenodd" clip-rule="evenodd" d="M408.933 159.116H405.197V132.223H408.933C418.217 132.223 420.994 137.047 420.994 145.607C420.994 154.895 418.217 159.116 408.933 159.116ZM419.425 163.819C427.145 162.493 432.207 156.702 432.207 144.887C432.207 131.616 426.057 123.056 410.259 123.056H394.219V199.033H405.197V168.162H409.414C417.254 168.162 418.58 172.622 419.062 181.545C419.547 191.314 419.907 195.293 421.112 199.033H432.45C430.4 194.812 430.4 190.352 429.914 180.943C429.433 171.781 427.626 165.505 419.425 163.819Z" fill="white"/>
<path fill-rule="evenodd" clip-rule="evenodd" d="M514.094 169.851C514.094 184.804 511.32 190.109 503.119 190.109H498.417V131.98H503.119C511.32 131.98 514.094 137.289 514.094 152.241V169.851ZM504.325 123.06H487.2V199.033H504.325C519.52 199.033 525.427 189.021 525.427 167.558V154.534C525.427 133.067 519.52 123.06 504.325 123.06Z" fill="white"/>
<path fill-rule="evenodd" clip-rule="evenodd" d="M604.416 158.393L598.023 153.69C593.802 150.431 591.271 147.9 591.271 141.026C591.271 134.875 593.442 131.018 598.508 131.018C603.931 131.018 606.345 135.361 606.345 143.076V149.469H616.357V143.318C616.357 129.93 610.445 122.09 598.383 122.09C587.414 122.09 580.778 130.173 580.778 141.628C580.778 153.811 586.686 158.873 592.961 163.459L599.111 168.161C603.692 171.776 606.826 174.069 606.826 180.943C606.826 187.214 604.294 191.076 599.111 191.076C593.442 191.076 590.547 186.49 590.547 178.893V172.14H580.535V178.655C580.535 192.281 587.292 200 599.111 200C610.445 200 617.319 192.402 617.319 180.341C617.319 168.764 611.654 163.338 604.416 158.393Z" fill="white"/>
</svg>
