<svg width="40" height="41" viewBox="0 0 40 41" fill="none" xmlns="http://www.w3.org/2000/svg">
<rect y="0.0526123" width="40" height="40" fill="#FFAE80"/>
<path fill-rule="evenodd" clip-rule="evenodd" d="M34.0001 18.0526C34.0001 24.68 28.6275 30.0526 22.0001 30.0526C19.2801 30.0526 16.7714 29.1476 14.7588 27.6223L8.5252 33.8559L5.69678 31.0275L12.0145 24.7098C10.742 22.8049 10.0001 20.5154 10.0001 18.0526C10.0001 11.4252 15.3727 6.05261 22.0001 6.05261C28.6275 6.05261 34.0001 11.4252 34.0001 18.0526ZM30.0001 18.0526C30.0001 22.4709 26.4184 26.0526 22.0001 26.0526C17.5818 26.0526 14.0001 22.4709 14.0001 18.0526C14.0001 13.6343 17.5818 10.0526 22.0001 10.0526C26.4184 10.0526 30.0001 13.6343 30.0001 18.0526Z" fill="black"/>
</svg>
