<svg width="30" height="30" viewBox="0 0 30 30" fill="none" xmlns="http://www.w3.org/2000/svg">
<path d="M23.25 9.83744C22.6429 10.1069 21.9905 10.2884 21.3057 10.3702C22.0049 9.95156 22.5419 9.28812 22.7942 8.4975C22.1404 8.88525 21.4157 9.16712 20.6444 9.31906C20.0277 8.66112 19.147 8.25 18.1735 8.25C15.9879 8.25 14.3819 10.2891 14.8756 12.4059C12.063 12.265 9.56875 10.9175 7.89881 8.86944C7.01194 10.3909 7.43887 12.3812 8.94587 13.3891C8.39175 13.3712 7.86925 13.2192 7.41344 12.9656C7.37631 14.5337 8.50037 16.0009 10.1284 16.3274C9.65194 16.4567 9.13013 16.4869 8.59938 16.3852C9.02975 17.7299 10.2796 18.7082 11.7619 18.7357C10.3387 19.8516 8.54575 20.35 6.75 20.1382C8.24806 21.0987 10.028 21.659 11.9392 21.659C18.2244 21.659 21.7753 16.3508 21.5608 11.5899C22.2222 11.1121 22.7962 10.516 23.25 9.83744Z" fill="black"/>
</svg>
